<?xml version="1.0" standalone="no"?>
<!DOCTYPE svg PUBLIC "-//W3C//DTD SVG 20010904//EN"
 "http://www.w3.org/TR/2001/REC-SVG-20010904/DTD/svg10.dtd">
<svg version="1.0" xmlns="http://www.w3.org/2000/svg"
 width="29.000000pt" height="56.000000pt" viewBox="0 0 29.000000 56.000000"
 preserveAspectRatio="xMidYMid meet">
<metadata>
Created by potrace 1.16, written by Peter Selinger 2001-2019
</metadata>
<g transform="translate(0.000000,56.000000) scale(0.100000,-0.100000)"
fill="#000000" stroke="none">
<path d="M160 464 c-47 -43 -51 -69 -15 -122 34 -50 32 -73 -15 -170 -38 -78
-51 -132 -31 -132 15 0 51 51 51 72 0 11 18 56 40 99 47 92 50 130 15 181 -30
45 -31 50 -5 73 11 10 20 22 20 27 0 17 -21 7 -60 -28z"/>
</g>
</svg>
